<?xml version="1.0" encoding="utf-8"?>
<!-- Generator: Adobe Illustrator 27.0.0, SVG Export Plug-In . SVG Version: 6.00 Build 0)  -->
<svg version="1.1" id="Layer_1" xmlns="http://www.w3.org/2000/svg" xmlns:xlink="http://www.w3.org/1999/xlink" x="0px" y="0px"
	 viewBox="0 0 834.1 844.7" style="enable-background:new 0 0 834.1 844.7;" xml:space="preserve">
<style type="text/css">
	.st0{fill:#F5ECE5;}
	.st1{fill:none;}
	.st2{fill:#36322F;}
	.st3{fill:#AC2C2B;}
</style>
<path class="st0" d="M417,0L417,0c230.3,0,417.1,186.7,417.1,417v10.6c0,230.3-186.7,417-417,417h0C186.7,844.7,0,658,0,427.7V417
	C0,186.7,186.7,0,417,0z"/>
<g>
	<path class="st1" d="M418.2,478.2L298.4,595.4l65.4,69.4c14.3,15.1,32.4,24.2,51.1,27l11.6-220.1l-0.1-0.1
		C423.5,473.5,420.7,475.6,418.2,478.2z"/>
	<path class="st1" d="M488.7,667.6c34.9-34.6,35.6-92.1,1.5-128.3l-63.7-67.6l-11.6,220.1C441,695.8,468.4,687.7,488.7,667.6z"/>
	<path class="st1" d="M608.9,311.2c-4.7-5-12.3-5.2-17.1-0.5l-81.2,79.5c-4.8,4.7-4.9,12.6-0.3,17.6l46.6,50.1
		c26.2,28.3,69.5,29.5,96.8,2.9c27.2-26.6,28.1-71.2,1.9-99.5L608.9,311.2z"/>
	<path class="st2" d="M730.5,309l-83.1-89.5c-13-14-34.4-14.6-47.9-1.4L448.4,366L443,469l63.7,67.6c34.1,36.2,33.4,93.7-1.5,128.3
		C485,685,457.6,693,431.5,689.1l-4.1,77.7c43.6,4.6,88.6-9.7,122.4-43.2l12.5-12.4c45.2-44.9,57.3-112.1,35.5-169.2
		c44.1,12,92.8,1.3,128.3-32.8c34.5-33.3,48.3-81,40.8-125.9C762.4,356.3,750.3,330.3,730.5,309z M670.1,458
		c-27.3,26.6-70.6,25.4-96.8-2.9L526.7,405c-4.6-5-4.5-12.8,0.3-17.6l81.2-79.5c4.8-4.7,12.4-4.5,17.1,0.5l46.6,50.1
		C698.2,386.9,697.3,431.4,670.1,458z"/>
	<path class="st3" d="M363.8,664.8l-65.4-69.4l119.8-117.3c2.5-2.5,5.3-4.6,8.2-6.5l0.1,0.1l5.4-103l-59.3-63
		c-37.2-39.4-35.6-102.3,3.5-139.1l24.6-23c6.1-5.7,5-15.6-1.9-20.2c-13.2-8.6-21.6-21-26.6-30.9c-3.8-7.5-13.4-9.2-19.3-3.6
		L98.3,328.2c-5.9,5.5-5.2,15.3,1.5,19.8c12.9,8.9,20.6,21.4,25,31.6c3.5,7.9,13.4,10,19.7,4.2l38.3-36
		c37.6-35.4,96.1-33.2,131.8,4.7l64.3,68.2L251.6,545.4l-131.1-139l0.3-0.2c0,0,0,0,0-0.1l-44.3,44c-4.9,4.9-5,12.9-0.3,18
		l238.6,253.4c26.6,28.3,60.8,44.3,96,48.1l4.1-77.7C396.1,689,378,680,363.8,664.8z"/>
</g>
</svg>
