<?xml version="1.0" encoding="UTF-8"?>
<svg id="Layer_1" data-name="Layer 1" xmlns="http://www.w3.org/2000/svg" viewBox="0 0 696.15 683.89">
  <defs>
    <style>
      .cls-1 {
        fill: none;
      }

      .cls-2 {
        fill: #ac2c2b;
      }

      .cls-3 {
        fill: #f5ece5;
      }
    </style>
  </defs>
  <path class="cls-1" d="M345.46,392.57l-119.78,117.25,65.38,69.41c14.27,15.14,32.36,24.16,51.14,26.99l11.57-220.12-.07-.08c-2.93,1.91-5.72,3.99-8.24,6.54Z"/>
  <path class="cls-1" d="M416.01,581.96c34.89-34.6,35.57-92.09,1.46-128.28l-63.7-67.57-11.57,220.12c26.1,3.94,53.52-4.08,73.81-24.26Z"/>
  <path class="cls-1" d="M536.14,225.6c-4.68-5-12.33-5.25-17.11-.5l-81.25,79.52c-4.79,4.75-4.9,12.58-.32,17.59l46.56,50.14c26.2,28.28,69.48,29.49,96.78,2.85,27.2-26.63,28.1-71.18,1.9-99.46l-46.56-50.14Z"/>
  <path class="cls-3" d="M657.8,223.4l-83.11-89.47c-12.97-13.96-34.36-14.56-47.87-1.36l-151.09,147.81-5.41,102.97,63.7,67.57c34.1,36.19,33.43,93.68-1.46,128.28-20.29,20.18-47.7,28.2-73.81,24.26l-4.08,77.67c43.59,4.63,88.63-9.69,122.43-43.25l12.53-12.43c45.24-44.94,57.27-112.12,35.5-169.22,44.07,12.03,92.77,1.29,128.26-32.8,34.53-33.32,48.27-80.95,40.79-125.88-4.48-26.9-16.57-52.85-36.37-74.16Zm-60.45,149.05c-27.3,26.64-70.58,25.43-96.78-2.85l-46.56-50.14c-4.59-5.02-4.47-12.84,.32-17.59l81.25-79.52c4.79-4.75,12.43-4.5,17.11,.5l46.56,50.14c26.2,28.28,25.3,72.84-1.9,99.46Z"/>
  <path class="cls-2" d="M291.06,579.23l-65.38-69.41,119.78-117.25c2.52-2.55,5.31-4.63,8.24-6.54l.07,.08,5.41-102.97-59.35-63.01c-37.18-39.43-35.58-102.35,3.52-139.06l24.55-23.04c6.05-5.67,5-15.63-1.93-20.16-13.18-8.55-21.65-21.03-26.64-30.95-3.78-7.48-13.4-9.23-19.35-3.57L25.61,242.64c-5.87,5.54-5.17,15.25,1.47,19.83,12.94,8.9,20.59,21.41,25.03,31.62,3.45,7.94,13.43,10.03,19.66,4.23l38.31-35.98c37.61-35.35,96.05-33.22,131.76,4.73l64.26,68.18-127.28,124.58L47.75,320.87l.26-.25-.02-.1L3.71,364.49c-4.87,4.87-4.95,12.89-.25,17.99l238.63,253.37c26.62,28.26,60.85,44.32,96.03,48.05l4.08-77.67c-18.77-2.83-36.87-11.85-51.14-26.99Z"/>
</svg>